# Blender 4.3.2
# www.blender.org
mtllib dumpster.mtl
o Body
v 1.125000 2.959543 -1.875000
v 1.125000 0.350000 -1.875000
v 1.125000 2.959543 1.875000
v 1.125000 0.350000 1.875000
v -1.125000 2.395747 -1.875000
v -1.125000 0.350000 -1.875000
v -1.125000 2.395747 1.875000
v -1.125000 0.350000 1.875000
v 1.065257 2.959543 -1.789489
v 1.079534 0.400518 -1.799223
v 1.065257 2.959543 1.789489
v 1.079534 0.400518 1.799223
v -1.073100 2.395747 -1.776286
v -1.079534 0.400518 -1.799223
v -1.073100 2.395747 1.776286
v -1.079534 0.400518 1.799223
v -1.088649 1.263787 1.826491
v -1.088649 1.461008 1.826491
v -1.088649 1.461008 -1.826491
v -1.088649 1.263787 -1.826491
v -1.125000 1.215278 1.875000
v -1.125000 1.509518 1.875000
v -1.125000 1.509517 -1.875000
v -1.125000 1.215278 -1.875000
vn -0.0000 -0.0000 1.0000
vn -1.0000 -0.0000 -0.0000
vn -0.0000 -1.0000 -0.0000
vn -0.0000 -0.0000 -1.0000
vn 0.0040 -0.0072 -1.0000
vn 1.0000 -0.0032 -0.0000
vn -0.0000 1.0000 -0.0000
vn -1.0000 -0.0056 -0.0000
vn 0.0040 -0.0072 1.0000
vn -0.2489 0.9685 0.0106
vn -0.2489 0.9685 -0.0106
vn 1.0000 -0.0000 -0.0000
vn -0.8002 -0.0000 -0.5997
vn -0.8002 -0.0000 0.5997
vn -0.8002 0.5997 -0.0000
vn -0.8002 -0.5997 -0.0000
vt 0.559952 0.006906
vt 0.837868 0.009597
vt 0.810824 0.270784
vt 0.711669 0.269059
vt 0.674999 0.268420
vt 0.555871 0.266347
vt 0.438132 0.397065
vt 0.437647 0.289146
vt 0.957355 0.286908
vt 0.957840 0.394828
vt 0.444304 0.006678
vt 0.947657 0.008491
vt 0.947657 0.277814
vt 0.444304 0.276001
vt 0.587888 0.149840
vt 0.589990 0.116928
vt 0.595672 0.027935
vt 0.823304 0.016369
vt 0.832730 0.272827
vt 0.581062 0.256758
vt 0.909959 0.236349
vt 0.441402 0.264517
vt 0.439570 0.006949
vt 0.952147 0.006112
vt 0.441164 0.003226
vt 0.957018 0.003692
vt 0.957135 0.261848
vt 0.441329 0.261943
vt 0.959555 0.264984
vt 0.440771 0.263542
vt 0.443508 0.002952
vt 0.961545 0.000708
vt 0.958248 0.259859
vt 0.440299 0.262156
vt 0.441083 0.003624
vt 0.960920 0.003759
vt 0.440308 0.263991
vt 0.440363 0.004922
vt 0.952418 0.005973
vt 0.848038 0.261256
vt 0.439131 0.199375
vt 0.438973 0.197853
vt 0.629881 0.262948
vt 0.439084 0.262027
vt 0.439279 0.263386
vt 0.638019 0.190841
vt 0.629670 0.263315
vt 0.437883 0.262417
vt 0.437243 0.225323
vt 0.634968 0.225555
vt 0.961208 0.003339
vt 0.959205 0.286681
vt 0.420154 0.284507
vt 0.422157 0.001165
vt 0.438894 0.566635
vt 0.438311 0.436977
vt 0.958019 0.434739
vt 0.958602 0.564397
vt 0.445004 0.430368
vt 0.444884 0.403616
vt 0.951147 0.401437
vt 0.951267 0.428188
s 0
usemtl Dumpster
f 4/1/1 3/2/1 7/3/1 22/4/1 21/5/1 8/6/1
f 22/7/2 7/8/2 5/9/2 23/10/2
f 6/11/3 2/12/3 4/13/3 8/14/3
f 24/15/4 23/16/4 5/17/4 1/18/4 2/19/4 6/20/4
f 12/21/5 16/22/5 15/23/5 11/24/5
f 16/25/6 14/26/6 13/27/6 15/28/6
f 14/29/7 16/30/7 12/31/7 10/32/7
f 10/33/8 12/34/8 11/35/8 9/36/8
f 14/37/9 10/38/9 9/39/9 13/40/9
f 7/41/10 3/42/10 11/43/10 15/44/10
f 3/42/7 1/45/7 9/46/7 11/43/7
f 5/47/7 7/48/7 15/49/7 13/50/7
f 1/45/11 5/47/11 13/50/11 9/46/11
f 2/51/12 1/52/12 3/53/12 4/54/12
f 8/55/2 21/56/2 24/57/2 6/58/2
f 17/59/2 18/60/2 19/61/2 20/62/2
f 18/60/13 17/59/13 21/56/13 22/7/13
f 20/62/14 19/61/14 23/10/14 24/57/14
f 17/59/15 20/62/15 24/57/15 21/56/15
f 19/61/16 18/60/16 22/7/16 23/10/16
o Lid
v 1.123953 2.998717 -1.906223
v 1.123953 2.998717 1.906223
v -1.223956 2.434921 -1.906223
v -1.223956 2.434921 1.906223
v 1.140587 2.913191 -1.906223
v 1.140587 2.913191 1.906223
v -1.207321 2.349395 -1.906223
v -1.207321 2.349395 1.906223
vn -0.0000 -0.0000 1.0000
vn -0.0000 -0.0000 -1.0000
vn -0.9816 -0.1909 -0.0000
vn 0.9816 0.1909 -0.0000
vn 0.2335 -0.9724 -0.0000
vn -0.2335 0.9724 -0.0000
vt 0.972008 0.569945
vt 0.995189 0.569764
vt 0.995639 0.786790
vt 0.972011 0.786096
vt 0.719125 0.787790
vt 0.698442 0.788146
vt 0.697787 0.568459
vt 0.715130 0.568439
vt 0.832232 0.768383
vt 0.833421 0.788270
vt 0.759181 0.787420
vt 0.760102 0.768582
vt 0.698445 0.566508
vt 0.998093 0.568306
vt 0.998930 0.588077
vt 0.699065 0.588747
vt 0.992518 0.569413
vt 0.994455 0.786880
vt 0.699973 0.786105
vt 0.698422 0.569025
vt 0.994556 0.574643
vt 0.994556 0.786553
vt 0.699197 0.786553
vt 0.699197 0.574643
s 0
usemtl Dumpster
f 26/63/17 28/64/17 32/65/17 30/66/17
f 27/67/18 25/68/18 29/69/18 31/70/18
f 28/71/19 27/72/19 31/73/19 32/74/19
f 25/75/20 26/76/20 30/77/20 29/78/20
f 29/79/21 30/80/21 32/81/21 31/82/21
f 27/83/22 28/84/22 26/85/22 25/86/22
